<?xml version="1.0" encoding="utf-8"?>
<!-- Generator: Adobe Illustrator 22.0.1, SVG Export Plug-In . SVG Version: 6.00 Build 0)  -->
<svg version="1.1" id="레이어_1" xmlns="http://www.w3.org/2000/svg" xmlns:xlink="http://www.w3.org/1999/xlink" x="0px"
	 y="0px" viewBox="0 0 348.8 108" style="enable-background:new 0 0 348.8 108;" xml:space="preserve">
<style type="text/css">
	.st0{fill:none;}
	.st1{fill:#FFC800;}
</style>
<polygon class="st0" points="310,9.6 104.9,9.6 104.9,98.4 310,98.4 336.3,54 "/>
<g>
	<path class="st1" d="M316.9,0h-285L0,54l31.9,54h285l31.9-54L316.9,0z M89.3,82.3c-0.8,0.8-2,1.3-3.1,1.3c-1.2,0-2.3-0.4-3.2-1.3
		L68.1,67.3c-3.8,2.8-8.5,4.4-13.6,4.4c-13,0-23.6-10.6-23.6-23.6s10.6-23.6,23.6-23.6c13,0,23.6,10.6,23.6,23.6
		c0,4.7-1.4,9.2-3.8,12.9L89.3,76C91.1,77.7,91.1,80.5,89.3,82.3z M310,98.4H104.9V9.6H310L336.3,54L310,98.4z"/>
	<path class="st1" d="M54.5,33.4c-8.1,0-14.7,6.6-14.7,14.7s6.6,14.7,14.7,14.7c4,0,7.7-1.7,10.3-4.3c0.1-0.1,0.2-0.3,0.3-0.4
		c0.1-0.1,0.1-0.1,0.2-0.2c2.3-2.6,3.8-6.1,3.8-9.9C69.1,40,62.5,33.4,54.5,33.4z"/>
</g>
</svg>
