<?xml version="1.0" encoding="utf-8"?>
<!-- Generator: Adobe Illustrator 22.1.0, SVG Export Plug-In . SVG Version: 6.00 Build 0)  -->
<svg version="1.1" id="Capa_1" xmlns="http://www.w3.org/2000/svg" xmlns:xlink="http://www.w3.org/1999/xlink" x="0px" y="0px"
	 viewBox="0 0 512 384" style="enable-background:new 0 0 512 384;" xml:space="preserve">
<g>
	<path d="M448,298.7c0-23.6-19.1-42.7-42.7-42.7V149.4C405.3,66.9,338.5,0,256,0S106.7,66.9,106.7,149.4V256
		C83.1,256,64,275.1,64,298.7v42.7H42.7V384h426.7v-42.7H448V298.7z M149.3,149.4c0-58.9,47.8-106.7,106.7-106.7
		s106.7,47.8,106.7,106.7V256H149.3V149.4z M405.3,341.4H106.7v-42.7h298.7L405.3,341.4L405.3,341.4z"/>
	<circle cx="298.7" cy="106.7" r="21.3"/>
</g>
</svg>
